<svg width="600" height="240" viewBox="0 0 600 240" fill="none" xmlns="http://www.w3.org/2000/svg">
  <defs>
    <linearGradient id="sky" x1="0%" y1="0%" x2="0%" y2="100%">
      <stop offset="0%" style="stop-color:#ff7e5f;stop-opacity:1" />
      <stop offset="100%" style="stop-color:#feb47b;stop-opacity:1" />
    </linearGradient>
    <linearGradient id="water" x1="0%" y1="0%" x2="0%" y2="100%">
      <stop offset="0%" style="stop-color:#4facfe;stop-opacity:1" />
      <stop offset="100%" style="stop-color:#00f2fe;stop-opacity:1" />
    </linearGradient>
  </defs>
  
  <!-- Sky -->
  <rect width="600" height="120" fill="url(#sky)"/>
  
  <!-- Water -->
  <rect y="120" width="600" height="120" fill="url(#water)"/>
  
  <!-- Sun -->
  <circle cx="500" cy="60" r="30" fill="#ffd700"/>
  
  <!-- Boat -->
  <path d="M200 140L400 140L380 180L220 180L200 140Z" fill="#8B4513"/>
  <path d="M220 140L380 140L360 160L240 160L220 140Z" fill="#A0522D"/>
  <rect x="290" y="100" width="20" height="40" fill="#8B4513"/>
  <path d="M290 100L300 80L310 100Z" fill="#FFD700"/>
  
  <!-- Waves -->
  <path d="M0 150 Q150 140 300 150 T600 150" stroke="#ffffff" stroke-width="2" fill="none" opacity="0.6"/>
  <path d="M0 160 Q150 150 300 160 T600 160" stroke="#ffffff" stroke-width="2" fill="none" opacity="0.4"/>
</svg>
