<svg width="192" height="192" viewBox="0 0 192 192" fill="none" xmlns="http://www.w3.org/2000/svg">
  <rect width="192" height="192" fill="#000000"/>
  <g transform="translate(36, 36) scale(0.1875)">
    <path d="M524.3,187.34c-1.16.58-34.35,24.97-47.13,34.55-26.71,21-51.97,43.74-75.58,68.22-7.74,8.23-18.19,20.13-19.93,22.45s-.58,3.29-.19,3.87c.48.68,1.74,2.42,2.81,3.58.97,1.26,1.55,1.35,3.77,1.16s24.48-4.74,38.8-7.84c9.29-1.74,18.48-4.06,27.58-6.87,2.42-.77,4.64-2.23,6.39-4.06,1.45-1.55,6.1-7.55,17.22-24,11.81-17.81,22.74-36.19,32.61-55.16,8.23-15.87,15.68-34.35,15.68-34.35.97-2.23-.87-2.13-1.94-1.55M532.42,166.73c-7.26-11.9-15.19-23.22-23.81-34.16-14.81-18.48-31.26-35.51-49.16-50.9-10.45-9.68-21.77-18.48-33.87-26.13-2.71-1.65-5.9-2.42-9.1-2.23-2.52,0-12.97,0-26.71,1.06-8.23.58-17.61,1.84-25.84,2.81-14.32,1.74-28.45,4.74-42.19,9.19-1.94.58-3.68,1.84-4.74,3.58,0,0-2.32,6-3.29,9.1s1.26,3.58,1.26,3.58c0,0,40.35,9.87,71.71,18.19,31.35,8.32,60,17.71,60,17.71l-.87.48s-15.68-4.16-31.06-7.74c-15.39-3.58-30.29-6.1-35.32-6.87s-8.42,1.06-17.9,4.84c-6.39,2.32-12.39,5.52-18,9.39-3.77,2.61-2.81,4.84-2.32,6.58.19.48.39.97.68,1.35,4.55,6.68,10.26,12.39,16.74,17.03,18.87,14.13,38.8,26.81,59.51,37.93,16.74,8.71,33.87,16.64,51.38,23.61,3.1,1.35,6.77,1.16,9.68-.58,2.81-1.26,15.68-8.32,27.97-15.39,8.03-4.74,15.77-9.87,23.22-15.48,2.13-1.65,3-4.55,2.13-7.06M179.12,290.11c-23.61-24.39-48.77-47.22-75.48-68.22-12.77-9.68-45.97-34.06-47.13-34.64s-2.9-.68-1.94,1.55c0,0,7.35,18.48,15.68,34.35,9.87,18.97,20.71,37.35,32.61,55.16,11.23,16.35,15.87,22.45,17.22,24,1.74,1.84,3.97,3.29,6.39,4.06,9.1,2.81,18.29,5.03,27.58,6.87,14.32,3,36.68,7.64,38.8,7.84s2.61.19,3.77-1.16,2.32-2.9,2.81-3.58c.39-.58,1.55-1.55-.19-3.87s-12.19-14.23-19.93-22.45M378.08,305.5s-50.22.58-86.03.58-86.71-.77-88.54-.87-2.32,0-2.23.68c0,0-.19.19.68.97.48.48,1.26,1.26,2.13,2.23,1.26,1.35,2.32,2.9,3.29,4.45.68,1.26-.29,2.42-1.55,4.16l-1.84,2.42s66.96.48,88.25.48,85.06-.48,85.06-.48c0,0-.77-.97-1.55-2.03-.48-.68-.97-1.35-1.35-2.13-.58-1.45-.19-3.1.87-4.16,2.13-2.71,3.97-4.94,3.97-4.94,0,0,.87-.87.19-1.16-.39-.19-.87-.29-1.26-.19M101.51,204.66c2.9,1.74,6.58,1.94,9.68.58,17.52-6.97,34.64-14.9,51.38-23.61,20.81-11.13,40.64-23.81,59.51-37.93,6.58-4.64,12.19-10.45,16.74-17.13.29-.48.48-.87.68-1.35.48-1.74,1.45-3.87-2.32-6.58-5.52-3.87-11.61-7.06-17.9-9.39-9.58-3.87-12.97-5.52-17.9-4.84-4.94.68-19.93,3.19-35.32,6.87s-31.06,7.74-31.06,7.74l-.87-.48s28.64-9.39,60-17.71c31.35-8.32,71.8-18.29,71.8-18.29,0,0,2.32-.48,1.26-3.58s-3.29-9.1-3.29-9.1c-1.16-1.74-2.81-3-4.84-3.58-13.74-4.45-27.87-7.55-42.19-9.19-8.23-.97-17.61-2.23-25.84-2.81-13.74-1.06-24.19-1.16-26.71-1.06-3.19-.1-6.29.68-9.1,2.23-12.1,7.64-23.42,16.45-33.87,26.13-17.9,15.39-34.35,32.42-49.16,50.9-8.61,10.93-16.55,22.26-23.81,34.16-.87,2.52,0,5.32,2.03,7.06,7.45,5.61,15.19,10.74,23.22,15.48,12.19,7.06,25.16,14.13,27.87,15.39M323.98,150.57c3.77.19,6.68,3.39,6.58,7.16.19,3.77-2.81,6.97-6.58,7.16-3.77-.19-6.68-3.39-6.58-7.16-.19-3.77,2.81-6.97,6.58-7.16M255.57,164.79c-3.77-.19-6.68-3.39-6.48-7.16-.19-3.77,2.81-6.97,6.48-7.16,3.77.19,6.68,3.39,6.48,7.16.19,3.77-2.81,6.97-6.48,7.16M263.5,147.67c-2.13-2.13-5.13-3.29-8.13-3.19-2.03.1-3.97.77-5.61,1.84-.68.58-1.74.48-2.32-.29h0s-2.42-2.81-4.26-4.94c-.68-.97-1.94-1.16-2.9-.48-.19.1-.29.19-.39.39,0,0-4.64,3.97-10.93,8.52-6.29,4.55-11.03,7.26-11.03,7.26-1.16.77-.68,1.74.19,2.42.68.48,2.61,1.74,9,5.71,6.58,4.16,9.29,5.61,10.84,6.48s2.42.77,5.23.48c3.19-.39,32.42-1.74,46.93-1.74,15.58,0,47.51,1.84,49.16,1.84,1.45-.19,2.81-.68,3.97-1.35,0,0,10.93-7.16,18.97-12,1.16-.68.77-1.65-.29-2.42-.58-.48-6.87-4.64-11.61-7.94-4.26-2.9-8.71-6.19-10.45-7.55-.77-.68-1.94-.68-2.61,0-.1.1-.19.19-.29.39-.48.39-2.81,3.19-3.87,4.35s-1.35,1.84-2.9,1.06c-1.74-1.06-3.68-1.65-5.71-1.74-2.9-.29-5.71.68-7.94,2.52-2.03,1.74-3.48,4.16-4.16,6.77-.19.68-.68,1.16-1.35,1.35h-41.9c-1.84,0-1.94-1.06-2.32-1.84-.77-2.13-1.94-4.06-3.39-5.71" fill="white"/>
  </g>
</svg>