<svg width="300" height="300" viewBox="0 0 300 300" fill="none" xmlns="http://www.w3.org/2000/svg">
  <rect width="300" height="300" fill="#f8f9fa"/>
  <rect x="50" y="50" width="200" height="200" fill="white" stroke="#dee2e6" stroke-width="2"/>
  
  <!-- QR Code Pattern (simplified) -->
  <rect x="70" y="70" width="20" height="20" fill="#000"/>
  <rect x="110" y="70" width="20" height="20" fill="#000"/>
  <rect x="150" y="70" width="20" height="20" fill="#000"/>
  <rect x="190" y="70" width="20" height="20" fill="#000"/>
  <rect x="210" y="70" width="20" height="20" fill="#000"/>
  
  <rect x="70" y="110" width="20" height="20" fill="#000"/>
  <rect x="130" y="110" width="20" height="20" fill="#000"/>
  <rect x="170" y="110" width="20" height="20" fill="#000"/>
  <rect x="210" y="110" width="20" height="20" fill="#000"/>
  
  <rect x="70" y="150" width="20" height="20" fill="#000"/>
  <rect x="110" y="150" width="20" height="20" fill="#000"/>
  <rect x="150" y="150" width="20" height="20" fill="#000"/>
  <rect x="190" y="150" width="20" height="20" fill="#000"/>
  <rect x="210" y="150" width="20" height="20" fill="#000"/>
  
  <rect x="70" y="190" width="20" height="20" fill="#000"/>
  <rect x="130" y="190" width="20" height="20" fill="#000"/>
  <rect x="170" y="190" width="20" height="20" fill="#000"/>
  <rect x="210" y="190" width="20" height="20" fill="#000"/>
  
  <rect x="70" y="210" width="20" height="20" fill="#000"/>
  <rect x="110" y="210" width="20" height="20" fill="#000"/>
  <rect x="150" y="210" width="20" height="20" fill="#000"/>
  <rect x="190" y="210" width="20" height="20" fill="#000"/>
  <rect x="210" y="210" width="20" height="20" fill="#000"/>
  
  <!-- PayPal Logo -->
  <text x="150" y="280" text-anchor="middle" font-family="Arial, sans-serif" font-size="16" fill="#003087" font-weight="bold">PayPal</text>
</svg>
